<svg id="Capa_1" data-name="Capa 1" xmlns="http://www.w3.org/2000/svg" viewBox="0 0 1694.05 411.25"><defs><style>.cls-1{fill:#fff;}</style></defs><path class="cls-1" d="M170,220.17q0-26.22-14.55-40.78T114.1,164.85q-30.24,0-55.33,20.53V381.59a28.65,28.65,0,0,1-8.55,21.1,28,28,0,0,1-20.54,8.56A29.24,29.24,0,0,1,0,382.46V29.67A29.22,29.22,0,0,1,28.76,0h.9A28,28,0,0,1,50.2,8.55a28.73,28.73,0,0,1,8.55,21.11v95.82a168,168,0,0,1,29.09-10.55,117.06,117.06,0,0,1,30.23-4.28q25.67,0,44.49,7.42t34.79,23.39a101.56,101.56,0,0,1,23.39,36.79,131.85,131.85,0,0,1,8,46.49V381.59A29.23,29.23,0,0,1,200,411.25h-.88q-12.57,0-20.82-8.56a29.16,29.16,0,0,1-8.27-21.1Z" transform="translate(0 -0.01)"/><path class="cls-1" d="M364.47,33.09A33.08,33.08,0,1,1,354.78,9.7,31.92,31.92,0,0,1,364.47,33.09ZM301.73,140.32a28.17,28.17,0,0,1,8.84-21.1,28.9,28.9,0,0,1,20.82-8.56q12.54,0,20.82,8.56a29.16,29.16,0,0,1,8.27,21.1V381.59a29.16,29.16,0,0,1-8.27,21.1q-8.28,8.56-20.82,8.56a28.9,28.9,0,0,1-20.82-8.56,28.17,28.17,0,0,1-8.84-21.1Z" transform="translate(0 -0.01)"/><path class="cls-1" d="M665.06,296.6q0,50.77-31.95,82.71-30.79,32-82.7,31.94a273.36,273.36,0,0,1-89-14.83A37.15,37.15,0,0,1,443.16,383a35.5,35.5,0,0,1-6.85-21.39v-332A29.21,29.21,0,0,1,465.11,0H466a28,28,0,0,1,20.54,8.55,28.73,28.73,0,0,1,8.55,21.11v95.82a168,168,0,0,1,29.09-10.55,117.06,117.06,0,0,1,30.23-4.28q49,0,79.28,30.8a101.56,101.56,0,0,1,23.39,36.79,131.85,131.85,0,0,1,8,46.49Zm-58.71-76.43q0-26.22-14.55-40.78t-41.35-14.54q-30.24,0-55.33,20.53V350.22a227.35,227.35,0,0,0,55.33,6.84q26.81,0,41.35-14.26t14.55-41.06Z" transform="translate(0 -0.01)"/><path class="cls-1" d="M778,288.62q0,17.69,2.85,29.37a56.52,56.52,0,0,0,8.55,19.68q14.83,19.4,43.92,19.39A115.74,115.74,0,0,0,865,352.79a255.59,255.59,0,0,0,29.94-10.56,32.12,32.12,0,0,1,12-2.85,28.27,28.27,0,0,1,19.4,7.7,24.73,24.73,0,0,1,8.55,19.11A32.72,32.72,0,0,1,931.44,381,24.42,24.42,0,0,1,920,391.86a198.23,198.23,0,0,1-86.7,19.39q-50.77,0-82.7-31.94-31.38-31.37-31.37-82.71V224.74q0-50.76,31.37-82.14,31.93-31.93,82.7-31.94,51.9,0,82.71,31.94a106.06,106.06,0,0,1,23.67,36.22Q948,199.66,948,224.74v26.8a37,37,0,0,1-36.92,37.08H778Zm111.22-54.19q0-69.59-55.9-69.58-27.37,0-41.35,16.82t-14,52.76Z" transform="translate(0 -0.01)"/><path class="cls-1" d="M1009.56,195.65a84.89,84.89,0,0,1,6.56-33.66,83.4,83.4,0,0,1,44.77-44.77,85,85,0,0,1,33.65-6.56,219.7,219.7,0,0,1,42.78,4.56,30.15,30.15,0,0,1,16.83,10,28.1,28.1,0,0,1-1.14,37.36q-7.71,8-20.25,8h-4.56a17.81,17.81,0,0,1-5.14-1.14q-6.84-1.71-14.26-3.14a75.85,75.85,0,0,0-14.26-1.42,26.27,26.27,0,0,0-26.19,26.2V381.59a28.7,28.7,0,0,1-8.56,21.1,28,28,0,0,1-20.53,8.56,29.23,29.23,0,0,1-29.66-28.77v-.89Z" transform="translate(0 -0.01)"/><path class="cls-1" d="M1376.88,140.32a29.16,29.16,0,0,1,8.27-21.1q8.25-8.56,20.82-8.56a29.24,29.24,0,0,1,29.66,28.81V361.63a35.5,35.5,0,0,1-6.85,21.39,37.13,37.13,0,0,1-18.25,13.4A271.67,271.67,0,0,1,1321,411.25a141,141,0,0,1-46.49-7.42,96.9,96.9,0,0,1-37.36-23.38,95.54,95.54,0,0,1-22.78-36.79q-7.42-21.39-7.42-47.06V140.32a29.24,29.24,0,0,1,28.81-29.66h.85a28,28,0,0,1,20.54,8.56,28.69,28.69,0,0,1,8.55,21.1V301.17q0,26.81,14.55,41.06T1321,356.49a225.07,225.07,0,0,0,55.9-6.84Z" transform="translate(0 -0.01)"/><path class="cls-1" d="M1550.27,274.93a91.19,91.19,0,0,1-39.07-27.09q-15.69-18.54-15.69-51.05a79.68,79.68,0,0,1,7.42-34.51,84.82,84.82,0,0,1,20.53-27.38,91.31,91.31,0,0,1,31.09-18,119.48,119.48,0,0,1,39.64-6.28q29.08,0,46.2,4a179.27,179.27,0,0,1,31.37,10.27,30.35,30.35,0,0,1,13.69,10.55,27.61,27.61,0,0,1-22,43.64h-.24a35.23,35.23,0,0,1-13.69-2.86A115.77,115.77,0,0,0,1623,168a153.61,153.61,0,0,0-29.94-3.13q-17.68,0-28.24,8t-10.55,22.82q0,11.42,7.13,18.25a40.63,40.63,0,0,0,16.26,9.7l55.89,18.25q28.52,9.71,44.49,29.09t16,50.76a83.51,83.51,0,0,1-7.41,35.08,89.68,89.68,0,0,1-20.53,28.52,92.42,92.42,0,0,1-31.95,19.11q-18.81,6.84-41.63,6.84-25.68,0-45.92-4.28a168.46,168.46,0,0,1-36.24-11.68,33.91,33.91,0,0,1-12.83-10.84,26,26,0,0,1-4.85-15.4,27.76,27.76,0,0,1,8.27-20,27.07,27.07,0,0,1,20.25-8.56,22.88,22.88,0,0,1,6.56,1.14c2.47.77,4.65,1.53,6.56,2.29a101.85,101.85,0,0,0,26,9.69,146.81,146.81,0,0,0,33.37,3.42q41.63,0,41.64-29.66,0-16-11.13-22.81A145.67,145.67,0,0,0,1597,292Z" transform="translate(0 -0.01)"/></svg>