<?xml version="1.0" encoding="utf-8"?>
<svg width="139px" height="25px" viewBox="0 0 139 25" version="1.1" xmlns:xlink="http://www.w3.org/1999/xlink" xmlns="http://www.w3.org/2000/svg">
  <desc>Created with Lunacy</desc>
  <defs>
    <linearGradient x1="0" y1="0.27457824" x2="1.2893752" y2="0.27457824" id="gradient_1">
      <stop offset="0" stop-color="#1F066C" />
      <stop offset="1" stop-color="#01FFC6" />
    </linearGradient>
  </defs>
  <path d="M84.5111 0.233333C84.3449 0.077777 84.1398 0 83.896 0L81.269 0C78.8748 0 77.0348 0.499995 75.7491 1.5C74.4633 2.50001 73.8204 4.1111 73.8204 6.33333L73.8204 7.33333L71.3265 7.33333C71.0826 7.33333 70.8776 7.41111 70.7113 7.56667C70.545 7.72222 70.4619 7.92222 70.4619 8.16667L70.4619 11.0333C70.4619 11.2778 70.545 11.4778 70.7113 11.6333C70.8776 11.7889 71.0826 11.8667 71.3265 11.8667L73.8204 11.8667L73.8204 23.9308C73.8204 24.1753 73.9036 24.3753 74.0698 24.5308C74.2361 24.6864 74.4411 24.7642 74.685 24.7642L78.7418 24.7642C78.9857 24.7642 79.1852 24.6808 79.3404 24.5142C79.4955 24.3475 79.5731 24.153 79.5731 23.9308L79.5731 11.8667L83.5634 11.8667C83.8073 11.8667 84.0123 11.7889 84.1786 11.6333C84.3449 11.4778 84.428 11.2778 84.428 11.0333L84.428 8.16667C84.428 7.92222 84.3449 7.72222 84.1786 7.56667C84.0123 7.41111 83.8073 7.33333 83.5634 7.33333L79.5731 7.33333L79.5731 6.5C79.5731 5.83333 79.7228 5.33889 80.022 5.01667C80.3213 4.69444 80.8256 4.53333 81.535 4.53333L83.896 4.53333C84.1398 4.53333 84.3449 4.45556 84.5111 4.3C84.6774 4.14444 84.7605 3.94445 84.7605 3.7L84.7605 0.833333C84.7605 0.588888 84.6774 0.38889 84.5111 0.233333ZM138.751 0.398423C138.585 0.242874 138.38 0.1651 138.136 0.1651L133.846 0.1651C133.625 0.1651 133.431 0.242874 133.265 0.398423C133.098 0.553973 133.015 0.753962 133.015 0.998397L133.015 8.91438C131.796 7.62554 130.189 6.98113 128.194 6.98113C126.066 6.98113 124.381 7.67554 123.14 9.06437C121.898 10.4532 121.233 12.3587 121.145 14.7808L121.111 15.9807L121.145 17.1473C121.233 19.6584 121.893 21.5916 123.123 22.9471C124.353 24.3026 126.044 24.9803 128.194 24.9803C130.433 24.9803 132.151 24.247 133.348 22.7804L133.348 23.8137C133.348 24.0359 133.431 24.2304 133.597 24.397C133.763 24.5637 133.957 24.647 134.179 24.647L138.136 24.647C138.38 24.647 138.585 24.5692 138.751 24.4137C138.917 24.2581 139 24.0582 139 23.8137L139 0.998397C139 0.753962 138.917 0.553973 138.751 0.398423ZM36.6469 6.86591C38.7939 6.86591 39.8729 7.48827 41.0854 8.73302L41.2328 8.88671L41.2328 8.16665C41.2328 7.9222 41.3159 7.72221 41.4822 7.56665C41.6484 7.41109 41.8424 7.33332 42.0641 7.33332L45.8216 7.33332C46.0655 7.33332 46.265 7.41109 46.4202 7.56665C46.5753 7.72221 46.6529 7.9222 46.6529 8.16665L46.6529 23.9308C46.6529 24.153 46.5753 24.3475 46.4202 24.5141C46.265 24.6808 46.0655 24.7641 45.8216 24.7641L42.0641 24.7641C41.8424 24.7641 41.6484 24.6808 41.4822 24.5141C41.3159 24.3475 41.2328 24.153 41.2328 23.9308L41.2328 23.0707C40.0172 24.3569 38.9201 25 36.6469 25C34.353 25 32.5917 24.3451 31.3628 23.0355C30.1794 21.7743 29.5152 19.9993 29.3701 17.7105L29.3473 17.2809C29.3372 17.0396 29.3311 16.7038 29.3291 16.2734L29.3291 15.5925C29.3311 15.1621 29.3372 14.8263 29.3473 14.585L29.3557 14.4218C29.4649 12.0487 30.1521 10.1961 31.4174 8.86401C32.6827 7.53193 34.4258 6.86591 36.6469 6.86591ZM109.632 6.93396C111.539 6.93396 113.151 7.31729 114.47 8.08396C115.789 8.85063 116.776 9.90618 117.43 11.2506C118.084 12.5951 118.411 14.1228 118.411 15.834L118.411 16.6673C118.411 16.9117 118.328 17.1173 118.161 17.284C117.995 17.4506 117.79 17.534 117.546 17.534L107.005 17.534L107.005 17.734C107.027 18.734 107.26 19.5395 107.703 20.1506C108.147 20.7617 108.779 21.0673 109.599 21.0673C110.131 21.0673 110.558 20.9617 110.879 20.7506C111.147 20.5747 111.403 20.3563 111.648 20.0955L111.794 19.934C111.993 19.7117 112.154 19.5728 112.276 19.5173C112.398 19.4617 112.592 19.434 112.858 19.434L117.214 19.434C117.413 19.434 117.585 19.4951 117.729 19.6173C117.873 19.7395 117.945 19.8895 117.945 20.0673C117.945 20.6451 117.618 21.3228 116.964 22.1006C116.31 22.8784 115.357 23.5451 114.105 24.1006C112.852 24.6562 111.372 24.934 109.665 24.934C106.961 24.934 104.833 24.2062 103.281 22.7506C101.729 21.2951 100.931 19.1784 100.887 16.4006L100.887 15.3673C100.975 12.7228 101.796 10.6562 103.347 9.16729C104.899 7.6784 106.994 6.93396 109.632 6.93396ZM25.1888 8.85C24.0471 7.61666 22.5674 7 20.7496 7C19.6633 7 18.6436 7.26666 17.6904 7.8C16.7371 8.33334 15.9945 9.02222 15.4624 9.86667C14.5535 7.95555 12.8798 7 10.4413 7C9.37722 7 8.42399 7.22222 7.58159 7.66667C6.73918 8.11111 6.05197 8.65555 5.51993 9.3L5.51993 8.16667C5.51993 7.92222 5.44234 7.72222 5.28716 7.56667C5.13198 7.41111 4.93247 7.33333 4.68861 7.33333L0.831314 7.33333C0.609629 7.33333 0.415658 7.41111 0.249394 7.56667C0.0831306 7.72222 0 7.92222 0 8.16667L0 16.8408C0 17.2049 0.294945 17.5 0.658777 17.5L5.19368 17.5C5.55751 17.5 5.85245 17.2049 5.85245 16.8408L5.85245 14.5667C5.85245 13.5667 6.07413 12.8278 6.5175 12.35C6.96087 11.8722 7.52616 11.6333 8.21339 11.6333C8.92278 11.6333 9.49915 11.8722 9.94252 12.35C10.3859 12.8278 10.6076 13.5778 10.6076 14.6L10.6076 16.8408C10.6076 17.2049 10.9025 17.5 11.2663 17.5L15.7347 17.5C16.0986 17.5 16.3935 17.2049 16.3935 16.8408L16.3935 14.6C16.3935 13.5778 16.6097 12.8278 17.0419 12.35C17.4742 11.8722 18.034 11.6333 18.7212 11.6333C19.4528 11.6333 20.0347 11.8722 20.467 12.35C20.8992 12.8278 21.1154 13.5778 21.1154 14.6L21.1154 23.9308C21.1154 24.1753 21.1985 24.3753 21.3648 24.5308C21.531 24.6864 21.7361 24.7642 21.9799 24.7642L26.07 24.7642C26.3139 24.7642 26.5134 24.6808 26.6686 24.5142C26.8237 24.3475 26.9013 24.153 26.9013 23.9308L26.9013 14.3667C26.9013 11.9222 26.3305 10.0833 25.1888 8.85ZM61.8498 7C63.1134 7 64.2385 7.28889 65.225 7.86667C66.2115 8.44445 66.9873 9.29999 67.5526 10.4333C68.1179 11.5667 68.4006 12.9333 68.4006 14.5333L68.4006 23.9308C68.4006 24.153 68.323 24.3475 68.1678 24.5142C68.0126 24.6808 67.8131 24.7642 67.5693 24.7642L63.1467 24.7642C62.9028 24.7642 62.6978 24.6864 62.5315 24.5308C62.3652 24.3753 62.2821 24.1753 62.2821 23.9308L62.2821 14.7333C62.2821 13.7333 62.0438 12.9667 61.5672 12.4333C61.0906 11.9 60.3978 11.6333 59.4889 11.6333C58.6021 11.6333 57.9039 11.9056 57.394 12.45C56.8841 12.9944 56.6292 13.7556 56.6292 14.7333L56.6292 16.8408C56.6292 17.2049 56.3342 17.5 55.9704 17.5L51.2027 17.5C50.8389 17.5 50.5439 17.2049 50.5439 16.8408L50.5439 8.16667C50.5439 7.92222 50.6271 7.72222 50.7933 7.56667C50.9596 7.41111 51.1536 7.33333 51.3753 7.33333L55.4653 7.33333C55.7092 7.33333 55.9087 7.41111 56.0639 7.56667C56.2191 7.72222 56.2966 7.92222 56.2966 8.16667L56.2966 9.43333C56.8952 8.7 57.6655 8.11111 58.6077 7.66667C59.5499 7.22222 60.6306 7 61.8498 7ZM91.3452 7.33331C91.589 7.33331 91.7941 7.41665 91.9603 7.58331C92.1266 7.74998 92.2097 7.95553 92.2097 8.19998L92.2097 9.46665C92.8304 8.77775 93.5564 8.24998 94.3878 7.88331C95.2191 7.51664 96.1446 7.33331 97.1644 7.33331L98.6607 7.33331C98.9046 7.33331 99.1041 7.41109 99.2593 7.56665C99.4145 7.7222 99.492 7.9222 99.492 8.16665L99.492 11.8C99.492 12.0222 99.4145 12.2166 99.2593 12.3833C99.1041 12.55 98.9046 12.6333 98.6607 12.6333L95.3022 12.6333C94.4155 12.6333 93.7338 12.8778 93.2572 13.3666C92.7806 13.8555 92.5423 14.5444 92.5423 15.4333L92.5423 16.8408C92.5423 17.2049 92.2473 17.5 91.8835 17.5L87.1158 17.5C86.752 17.5 86.457 17.2049 86.457 16.8408L86.457 8.19998C86.457 7.95553 86.5346 7.74998 86.6898 7.58331C86.845 7.41665 87.0445 7.33331 87.2883 7.33331L91.3452 7.33331ZM107.687 11.584C108.141 10.9951 108.789 10.7006 109.632 10.7006C110.474 10.7006 111.128 10.9951 111.594 11.584C112.059 12.1728 112.292 13.0006 112.292 14.0673L112.292 14.134L107.005 14.134L107.008 13.8571C107.036 12.8913 107.262 12.1336 107.687 11.584ZM37.6415 11.0972C36.7258 11.0972 36.0446 11.3883 35.5979 11.9704C35.1513 12.5524 34.8944 13.4255 34.8274 14.5897L34.7939 15.933L34.8274 17.2762C34.8944 18.4628 35.1513 19.3415 35.5979 19.9124C36.0446 20.4833 36.7258 20.7687 37.6415 20.7687C38.5571 20.7687 39.2383 20.4833 39.685 19.9124C40.1037 19.3772 40.3556 18.5714 40.4407 17.4951L40.4658 17.1446C40.4767 16.969 40.4838 16.7161 40.487 16.3859L40.4882 15.6389C40.4858 15.2216 40.4781 14.9116 40.465 14.7089L40.4555 14.5897C40.3885 13.4255 40.1317 12.5524 39.685 11.9704C39.2383 11.3883 38.5571 11.0972 37.6415 11.0972ZM127.978 12.4976C128.41 11.9087 129.125 11.6143 130.122 11.6143C131.053 11.6143 131.757 11.8976 132.234 12.4642C132.71 13.0309 132.971 13.7475 133.015 14.6141L133.039 14.9408C133.068 15.3497 133.082 15.6519 133.082 15.8474L133.081 15.9071C133.079 16.0349 133.072 16.2127 133.059 16.4404L133.003 17.3115C132.933 18.1568 132.683 18.8631 132.25 19.4306C131.785 20.0417 131.076 20.3472 130.122 20.3472C129.125 20.3472 128.41 20.0528 127.978 19.4639C127.545 18.875 127.296 18.0584 127.23 17.014L127.196 15.9807L127.23 14.9474C127.296 13.903 127.545 13.0864 127.978 12.4976ZM5.79167 20.5817C5.79167 19.8356 5.17759 19.2308 4.4201 19.2308L1.37157 19.2308C0.614073 19.2308 0 19.8356 0 20.5817L0 23.1683C0 23.9144 0.614073 24.5192 1.37157 24.5192L4.4201 24.5192C5.17759 24.5192 5.79167 23.9144 5.79167 23.1683L5.79167 20.5817ZM14.5558 19.2308C15.3133 19.2308 15.9274 19.8356 15.9274 20.5817L15.9274 23.1683C15.9274 23.9144 15.3133 24.5192 14.5558 24.5192L11.5073 24.5192C10.7498 24.5192 10.1357 23.9144 10.1357 23.1683L10.1357 20.5817C10.1357 19.8356 10.7498 19.2308 11.5073 19.2308L14.5558 19.2308ZM56.4684 20.5817C56.4684 19.8356 55.8544 19.2308 55.0969 19.2308L52.0483 19.2308C51.2908 19.2308 50.6768 19.8356 50.6768 20.5817L50.6768 23.1683C50.6768 23.9144 51.2908 24.5192 52.0483 24.5192L55.0969 24.5192C55.8544 24.5192 56.4684 23.9144 56.4684 23.1683L56.4684 20.5817ZM90.8127 19.2308C91.5702 19.2308 92.1842 19.8356 92.1842 20.5817L92.1842 23.1683C92.1842 23.9144 91.5702 24.5192 90.8127 24.5192L87.7641 24.5192C87.0067 24.5192 86.3926 23.9144 86.3926 23.1683L86.3926 20.5817C86.3926 19.8356 87.0067 19.2308 87.7641 19.2308L90.8127 19.2308Z" id="Shape" fill="url(#gradient_1)" fill-rule="evenodd" stroke="none" />
</svg>